<mxfile host="app.diagrams.net" modified="2023-10-13T19:39:48.522Z" agent="Mozilla/5.0 (Windows NT 10.0; Win64; x64) AppleWebKit/537.36 (KHTML, like Gecko) Chrome/104.0.0.0 Safari/537.36" etag="G5fNt1A-3SpaLoVYelrU" version="22.0.4" type="github">
  <diagram name="PÃ¡gina-1" id="woLYKScOq6vhadedtXkB">
    <mxGraphModel dx="838" dy="461" grid="1" gridSize="10" guides="1" tooltips="1" connect="1" arrows="1" fold="1" page="1" pageScale="1" pageWidth="827" pageHeight="1169" math="0" shadow="0">
      <root>
        <mxCell id="0" />
        <mxCell id="1" parent="0" />
        <mxCell id="bgBlzV7WbkrTSwDAs2LR-1" style="edgeStyle=orthogonalEdgeStyle;rounded=0;orthogonalLoop=1;jettySize=auto;html=1;exitX=0.5;exitY=1;exitDx=0;exitDy=0;exitPerimeter=0;" edge="1" parent="1" source="bgBlzV7WbkrTSwDAs2LR-2" target="bgBlzV7WbkrTSwDAs2LR-5">
          <mxGeometry relative="1" as="geometry" />
        </mxCell>
        <mxCell id="bgBlzV7WbkrTSwDAs2LR-2" value="Inicio" style="strokeWidth=2;html=1;shape=mxgraph.flowchart.terminator;whiteSpace=wrap;fontSize=20;" vertex="1" parent="1">
          <mxGeometry x="340" y="50" width="100" height="60" as="geometry" />
        </mxCell>
        <mxCell id="bgBlzV7WbkrTSwDAs2LR-3" style="edgeStyle=orthogonalEdgeStyle;rounded=0;orthogonalLoop=1;jettySize=auto;html=1;exitX=0.5;exitY=1;exitDx=0;exitDy=0;entryX=0.5;entryY=0;entryDx=0;entryDy=0;" edge="1" parent="1" source="bgBlzV7WbkrTSwDAs2LR-5" target="bgBlzV7WbkrTSwDAs2LR-7">
          <mxGeometry relative="1" as="geometry" />
        </mxCell>
        <mxCell id="bgBlzV7WbkrTSwDAs2LR-33" style="edgeStyle=orthogonalEdgeStyle;rounded=0;orthogonalLoop=1;jettySize=auto;html=1;exitX=0;exitY=0.5;exitDx=0;exitDy=0;" edge="1" parent="1" source="bgBlzV7WbkrTSwDAs2LR-5" target="bgBlzV7WbkrTSwDAs2LR-32">
          <mxGeometry relative="1" as="geometry">
            <Array as="points">
              <mxPoint x="320" y="190" />
              <mxPoint x="320" y="370" />
              <mxPoint x="390" y="370" />
            </Array>
          </mxGeometry>
        </mxCell>
        <mxCell id="bgBlzV7WbkrTSwDAs2LR-5" value="3" style="verticalLabelPosition=middle;verticalAlign=middle;html=1;shape=hexagon;perimeter=hexagonPerimeter2;arcSize=6;size=0.27;labelPosition=center;align=center;fontSize=16;" vertex="1" parent="1">
          <mxGeometry x="340" y="160" width="100" height="60" as="geometry" />
        </mxCell>
        <mxCell id="bgBlzV7WbkrTSwDAs2LR-7" value="pickbeeper();" style="rounded=1;whiteSpace=wrap;html=1;absoluteArcSize=1;arcSize=14;strokeWidth=2;" vertex="1" parent="1">
          <mxGeometry x="340" y="240" width="100" height="40" as="geometry" />
        </mxCell>
        <mxCell id="bgBlzV7WbkrTSwDAs2LR-29" style="edgeStyle=orthogonalEdgeStyle;rounded=0;orthogonalLoop=1;jettySize=auto;html=1;exitX=0.5;exitY=1;exitDx=0;exitDy=0;entryX=0.5;entryY=0;entryDx=0;entryDy=0;" edge="1" parent="1" target="bgBlzV7WbkrTSwDAs2LR-30">
          <mxGeometry relative="1" as="geometry">
            <mxPoint x="390" y="280" as="sourcePoint" />
          </mxGeometry>
        </mxCell>
        <mxCell id="bgBlzV7WbkrTSwDAs2LR-31" style="edgeStyle=orthogonalEdgeStyle;rounded=0;orthogonalLoop=1;jettySize=auto;html=1;exitX=0.5;exitY=1;exitDx=0;exitDy=0;entryX=1;entryY=0.5;entryDx=0;entryDy=0;" edge="1" parent="1" source="bgBlzV7WbkrTSwDAs2LR-30" target="bgBlzV7WbkrTSwDAs2LR-5">
          <mxGeometry relative="1" as="geometry">
            <Array as="points">
              <mxPoint x="390" y="360" />
              <mxPoint x="460" y="360" />
              <mxPoint x="460" y="190" />
            </Array>
          </mxGeometry>
        </mxCell>
        <mxCell id="bgBlzV7WbkrTSwDAs2LR-30" value="move();" style="rounded=1;whiteSpace=wrap;html=1;absoluteArcSize=1;arcSize=14;strokeWidth=2;" vertex="1" parent="1">
          <mxGeometry x="340" y="300" width="100" height="40" as="geometry" />
        </mxCell>
        <mxCell id="bgBlzV7WbkrTSwDAs2LR-39" style="edgeStyle=orthogonalEdgeStyle;rounded=0;orthogonalLoop=1;jettySize=auto;html=1;exitX=0.5;exitY=1;exitDx=0;exitDy=0;" edge="1" parent="1" source="bgBlzV7WbkrTSwDAs2LR-32" target="bgBlzV7WbkrTSwDAs2LR-36">
          <mxGeometry relative="1" as="geometry" />
        </mxCell>
        <mxCell id="bgBlzV7WbkrTSwDAs2LR-32" value="pickbeeper();" style="rounded=1;whiteSpace=wrap;html=1;absoluteArcSize=1;arcSize=14;strokeWidth=2;" vertex="1" parent="1">
          <mxGeometry x="340" y="380" width="100" height="40" as="geometry" />
        </mxCell>
        <mxCell id="bgBlzV7WbkrTSwDAs2LR-34" style="edgeStyle=orthogonalEdgeStyle;rounded=0;orthogonalLoop=1;jettySize=auto;html=1;exitX=0.5;exitY=1;exitDx=0;exitDy=0;" edge="1" parent="1" source="bgBlzV7WbkrTSwDAs2LR-36" target="bgBlzV7WbkrTSwDAs2LR-38">
          <mxGeometry relative="1" as="geometry" />
        </mxCell>
        <mxCell id="bgBlzV7WbkrTSwDAs2LR-35" style="edgeStyle=orthogonalEdgeStyle;rounded=0;orthogonalLoop=1;jettySize=auto;html=1;exitX=0;exitY=0.5;exitDx=0;exitDy=0;" edge="1" parent="1" source="bgBlzV7WbkrTSwDAs2LR-36">
          <mxGeometry relative="1" as="geometry">
            <Array as="points">
              <mxPoint x="320" y="470" />
              <mxPoint x="320" y="590" />
              <mxPoint x="390" y="590" />
            </Array>
            <mxPoint x="390" y="600" as="targetPoint" />
          </mxGeometry>
        </mxCell>
        <mxCell id="bgBlzV7WbkrTSwDAs2LR-36" value="3" style="verticalLabelPosition=middle;verticalAlign=middle;html=1;shape=hexagon;perimeter=hexagonPerimeter2;arcSize=6;size=0.27;labelPosition=center;align=center;fontSize=16;" vertex="1" parent="1">
          <mxGeometry x="340" y="440" width="100" height="60" as="geometry" />
        </mxCell>
        <mxCell id="bgBlzV7WbkrTSwDAs2LR-37" style="edgeStyle=orthogonalEdgeStyle;rounded=0;orthogonalLoop=1;jettySize=auto;html=1;exitX=0.5;exitY=1;exitDx=0;exitDy=0;entryX=1;entryY=0.5;entryDx=0;entryDy=0;" edge="1" parent="1" source="bgBlzV7WbkrTSwDAs2LR-38" target="bgBlzV7WbkrTSwDAs2LR-36">
          <mxGeometry relative="1" as="geometry">
            <Array as="points">
              <mxPoint x="390" y="580" />
              <mxPoint x="460" y="580" />
              <mxPoint x="460" y="470" />
            </Array>
          </mxGeometry>
        </mxCell>
        <mxCell id="bgBlzV7WbkrTSwDAs2LR-38" value="turnleft();" style="rounded=1;whiteSpace=wrap;html=1;absoluteArcSize=1;arcSize=14;strokeWidth=2;" vertex="1" parent="1">
          <mxGeometry x="340" y="520" width="100" height="40" as="geometry" />
        </mxCell>
        <mxCell id="bgBlzV7WbkrTSwDAs2LR-40" value="move();" style="rounded=1;whiteSpace=wrap;html=1;absoluteArcSize=1;arcSize=14;strokeWidth=2;" vertex="1" parent="1">
          <mxGeometry x="340" y="600" width="100" height="40" as="geometry" />
        </mxCell>
        <mxCell id="bgBlzV7WbkrTSwDAs2LR-41" style="edgeStyle=orthogonalEdgeStyle;rounded=0;orthogonalLoop=1;jettySize=auto;html=1;exitX=0.5;exitY=1;exitDx=0;exitDy=0;" edge="1" parent="1" target="bgBlzV7WbkrTSwDAs2LR-44">
          <mxGeometry relative="1" as="geometry">
            <mxPoint x="390" y="640" as="sourcePoint" />
          </mxGeometry>
        </mxCell>
        <mxCell id="bgBlzV7WbkrTSwDAs2LR-42" style="edgeStyle=orthogonalEdgeStyle;rounded=0;orthogonalLoop=1;jettySize=auto;html=1;exitX=0.5;exitY=1;exitDx=0;exitDy=0;" edge="1" parent="1" source="bgBlzV7WbkrTSwDAs2LR-44" target="bgBlzV7WbkrTSwDAs2LR-46">
          <mxGeometry relative="1" as="geometry" />
        </mxCell>
        <mxCell id="bgBlzV7WbkrTSwDAs2LR-43" style="edgeStyle=orthogonalEdgeStyle;rounded=0;orthogonalLoop=1;jettySize=auto;html=1;exitX=0;exitY=0.5;exitDx=0;exitDy=0;" edge="1" parent="1" source="bgBlzV7WbkrTSwDAs2LR-44">
          <mxGeometry relative="1" as="geometry">
            <Array as="points">
              <mxPoint x="320" y="690" />
              <mxPoint x="320" y="810" />
              <mxPoint x="390" y="810" />
            </Array>
            <mxPoint x="390" y="820" as="targetPoint" />
          </mxGeometry>
        </mxCell>
        <mxCell id="bgBlzV7WbkrTSwDAs2LR-44" value="3" style="verticalLabelPosition=middle;verticalAlign=middle;html=1;shape=hexagon;perimeter=hexagonPerimeter2;arcSize=6;size=0.27;labelPosition=center;align=center;fontSize=16;" vertex="1" parent="1">
          <mxGeometry x="340" y="660" width="100" height="60" as="geometry" />
        </mxCell>
        <mxCell id="bgBlzV7WbkrTSwDAs2LR-45" style="edgeStyle=orthogonalEdgeStyle;rounded=0;orthogonalLoop=1;jettySize=auto;html=1;exitX=0.5;exitY=1;exitDx=0;exitDy=0;entryX=1;entryY=0.5;entryDx=0;entryDy=0;" edge="1" parent="1" source="bgBlzV7WbkrTSwDAs2LR-46" target="bgBlzV7WbkrTSwDAs2LR-44">
          <mxGeometry relative="1" as="geometry">
            <Array as="points">
              <mxPoint x="390" y="800" />
              <mxPoint x="460" y="800" />
              <mxPoint x="460" y="690" />
            </Array>
          </mxGeometry>
        </mxCell>
        <mxCell id="bgBlzV7WbkrTSwDAs2LR-46" value="turnleft();" style="rounded=1;whiteSpace=wrap;html=1;absoluteArcSize=1;arcSize=14;strokeWidth=2;" vertex="1" parent="1">
          <mxGeometry x="340" y="740" width="100" height="40" as="geometry" />
        </mxCell>
        <mxCell id="bgBlzV7WbkrTSwDAs2LR-47" style="edgeStyle=orthogonalEdgeStyle;rounded=0;orthogonalLoop=1;jettySize=auto;html=1;exitX=0.5;exitY=1;exitDx=0;exitDy=0;entryX=0.5;entryY=0;entryDx=0;entryDy=0;" edge="1" parent="1" source="bgBlzV7WbkrTSwDAs2LR-49" target="bgBlzV7WbkrTSwDAs2LR-50">
          <mxGeometry relative="1" as="geometry" />
        </mxCell>
        <mxCell id="bgBlzV7WbkrTSwDAs2LR-48" style="edgeStyle=orthogonalEdgeStyle;rounded=0;orthogonalLoop=1;jettySize=auto;html=1;exitX=0;exitY=0.5;exitDx=0;exitDy=0;" edge="1" parent="1" source="bgBlzV7WbkrTSwDAs2LR-49">
          <mxGeometry relative="1" as="geometry">
            <mxPoint x="390" y="1040" as="targetPoint" />
            <Array as="points">
              <mxPoint x="320" y="850" />
              <mxPoint x="320" y="1030" />
              <mxPoint x="390" y="1030" />
            </Array>
          </mxGeometry>
        </mxCell>
        <mxCell id="bgBlzV7WbkrTSwDAs2LR-49" value="3" style="verticalLabelPosition=middle;verticalAlign=middle;html=1;shape=hexagon;perimeter=hexagonPerimeter2;arcSize=6;size=0.27;labelPosition=center;align=center;fontSize=16;" vertex="1" parent="1">
          <mxGeometry x="340" y="820" width="100" height="60" as="geometry" />
        </mxCell>
        <mxCell id="bgBlzV7WbkrTSwDAs2LR-50" value="pickbeeper();" style="rounded=1;whiteSpace=wrap;html=1;absoluteArcSize=1;arcSize=14;strokeWidth=2;" vertex="1" parent="1">
          <mxGeometry x="340" y="900" width="100" height="40" as="geometry" />
        </mxCell>
        <mxCell id="bgBlzV7WbkrTSwDAs2LR-51" style="edgeStyle=orthogonalEdgeStyle;rounded=0;orthogonalLoop=1;jettySize=auto;html=1;exitX=0.5;exitY=1;exitDx=0;exitDy=0;entryX=0.5;entryY=0;entryDx=0;entryDy=0;" edge="1" parent="1" target="bgBlzV7WbkrTSwDAs2LR-53">
          <mxGeometry relative="1" as="geometry">
            <mxPoint x="390" y="940" as="sourcePoint" />
          </mxGeometry>
        </mxCell>
        <mxCell id="bgBlzV7WbkrTSwDAs2LR-52" style="edgeStyle=orthogonalEdgeStyle;rounded=0;orthogonalLoop=1;jettySize=auto;html=1;exitX=0.5;exitY=1;exitDx=0;exitDy=0;entryX=1;entryY=0.5;entryDx=0;entryDy=0;" edge="1" parent="1" source="bgBlzV7WbkrTSwDAs2LR-53" target="bgBlzV7WbkrTSwDAs2LR-49">
          <mxGeometry relative="1" as="geometry">
            <Array as="points">
              <mxPoint x="390" y="1020" />
              <mxPoint x="460" y="1020" />
              <mxPoint x="460" y="850" />
            </Array>
          </mxGeometry>
        </mxCell>
        <mxCell id="bgBlzV7WbkrTSwDAs2LR-53" value="move();" style="rounded=1;whiteSpace=wrap;html=1;absoluteArcSize=1;arcSize=14;strokeWidth=2;" vertex="1" parent="1">
          <mxGeometry x="340" y="960" width="100" height="40" as="geometry" />
        </mxCell>
        <mxCell id="bgBlzV7WbkrTSwDAs2LR-79" style="edgeStyle=orthogonalEdgeStyle;rounded=0;orthogonalLoop=1;jettySize=auto;html=1;exitX=0.5;exitY=1;exitDx=0;exitDy=0;" edge="1" parent="1" source="bgBlzV7WbkrTSwDAs2LR-54" target="bgBlzV7WbkrTSwDAs2LR-55">
          <mxGeometry relative="1" as="geometry" />
        </mxCell>
        <mxCell id="bgBlzV7WbkrTSwDAs2LR-54" value="pickbeeper();" style="rounded=1;whiteSpace=wrap;html=1;absoluteArcSize=1;arcSize=14;strokeWidth=2;" vertex="1" parent="1">
          <mxGeometry x="340" y="1040" width="100" height="40" as="geometry" />
        </mxCell>
        <mxCell id="bgBlzV7WbkrTSwDAs2LR-80" style="edgeStyle=orthogonalEdgeStyle;rounded=0;orthogonalLoop=1;jettySize=auto;html=1;exitX=0.5;exitY=1;exitDx=0;exitDy=0;entryX=0.5;entryY=0;entryDx=0;entryDy=0;" edge="1" parent="1" source="bgBlzV7WbkrTSwDAs2LR-55" target="bgBlzV7WbkrTSwDAs2LR-56">
          <mxGeometry relative="1" as="geometry" />
        </mxCell>
        <mxCell id="bgBlzV7WbkrTSwDAs2LR-55" value="turnleft();" style="rounded=1;whiteSpace=wrap;html=1;absoluteArcSize=1;arcSize=14;strokeWidth=2;" vertex="1" parent="1">
          <mxGeometry x="340" y="1100" width="100" height="40" as="geometry" />
        </mxCell>
        <mxCell id="bgBlzV7WbkrTSwDAs2LR-81" style="edgeStyle=orthogonalEdgeStyle;rounded=0;orthogonalLoop=1;jettySize=auto;html=1;exitX=0.5;exitY=1;exitDx=0;exitDy=0;entryX=0.5;entryY=0;entryDx=0;entryDy=0;" edge="1" parent="1" source="bgBlzV7WbkrTSwDAs2LR-56" target="bgBlzV7WbkrTSwDAs2LR-57">
          <mxGeometry relative="1" as="geometry" />
        </mxCell>
        <mxCell id="bgBlzV7WbkrTSwDAs2LR-56" value="move();" style="rounded=1;whiteSpace=wrap;html=1;absoluteArcSize=1;arcSize=14;strokeWidth=2;" vertex="1" parent="1">
          <mxGeometry x="340" y="1160" width="100" height="40" as="geometry" />
        </mxCell>
        <mxCell id="bgBlzV7WbkrTSwDAs2LR-82" style="edgeStyle=orthogonalEdgeStyle;rounded=0;orthogonalLoop=1;jettySize=auto;html=1;exitX=0.5;exitY=1;exitDx=0;exitDy=0;" edge="1" parent="1" source="bgBlzV7WbkrTSwDAs2LR-57" target="bgBlzV7WbkrTSwDAs2LR-60">
          <mxGeometry relative="1" as="geometry" />
        </mxCell>
        <mxCell id="bgBlzV7WbkrTSwDAs2LR-57" value="turnleft();" style="rounded=1;whiteSpace=wrap;html=1;absoluteArcSize=1;arcSize=14;strokeWidth=2;" vertex="1" parent="1">
          <mxGeometry x="340" y="1220" width="100" height="40" as="geometry" />
        </mxCell>
        <mxCell id="bgBlzV7WbkrTSwDAs2LR-58" style="edgeStyle=orthogonalEdgeStyle;rounded=0;orthogonalLoop=1;jettySize=auto;html=1;exitX=0.5;exitY=1;exitDx=0;exitDy=0;entryX=0.5;entryY=0;entryDx=0;entryDy=0;" edge="1" parent="1" source="bgBlzV7WbkrTSwDAs2LR-60" target="bgBlzV7WbkrTSwDAs2LR-61">
          <mxGeometry relative="1" as="geometry" />
        </mxCell>
        <mxCell id="bgBlzV7WbkrTSwDAs2LR-59" style="edgeStyle=orthogonalEdgeStyle;rounded=0;orthogonalLoop=1;jettySize=auto;html=1;exitX=0;exitY=0.5;exitDx=0;exitDy=0;" edge="1" parent="1" source="bgBlzV7WbkrTSwDAs2LR-60" target="bgBlzV7WbkrTSwDAs2LR-66">
          <mxGeometry relative="1" as="geometry">
            <Array as="points">
              <mxPoint x="320" y="1310" />
              <mxPoint x="320" y="1490" />
              <mxPoint x="390" y="1490" />
            </Array>
          </mxGeometry>
        </mxCell>
        <mxCell id="bgBlzV7WbkrTSwDAs2LR-60" value="3" style="verticalLabelPosition=middle;verticalAlign=middle;html=1;shape=hexagon;perimeter=hexagonPerimeter2;arcSize=6;size=0.27;labelPosition=center;align=center;fontSize=16;" vertex="1" parent="1">
          <mxGeometry x="340" y="1280" width="100" height="60" as="geometry" />
        </mxCell>
        <mxCell id="bgBlzV7WbkrTSwDAs2LR-61" value="pickbeeper();" style="rounded=1;whiteSpace=wrap;html=1;absoluteArcSize=1;arcSize=14;strokeWidth=2;" vertex="1" parent="1">
          <mxGeometry x="340" y="1360" width="100" height="40" as="geometry" />
        </mxCell>
        <mxCell id="bgBlzV7WbkrTSwDAs2LR-62" style="edgeStyle=orthogonalEdgeStyle;rounded=0;orthogonalLoop=1;jettySize=auto;html=1;exitX=0.5;exitY=1;exitDx=0;exitDy=0;entryX=0.5;entryY=0;entryDx=0;entryDy=0;" edge="1" parent="1" target="bgBlzV7WbkrTSwDAs2LR-64">
          <mxGeometry relative="1" as="geometry">
            <mxPoint x="390" y="1400" as="sourcePoint" />
          </mxGeometry>
        </mxCell>
        <mxCell id="bgBlzV7WbkrTSwDAs2LR-63" style="edgeStyle=orthogonalEdgeStyle;rounded=0;orthogonalLoop=1;jettySize=auto;html=1;exitX=0.5;exitY=1;exitDx=0;exitDy=0;entryX=1;entryY=0.5;entryDx=0;entryDy=0;" edge="1" parent="1" source="bgBlzV7WbkrTSwDAs2LR-64" target="bgBlzV7WbkrTSwDAs2LR-60">
          <mxGeometry relative="1" as="geometry">
            <Array as="points">
              <mxPoint x="390" y="1480" />
              <mxPoint x="460" y="1480" />
              <mxPoint x="460" y="1310" />
            </Array>
          </mxGeometry>
        </mxCell>
        <mxCell id="bgBlzV7WbkrTSwDAs2LR-64" value="move();" style="rounded=1;whiteSpace=wrap;html=1;absoluteArcSize=1;arcSize=14;strokeWidth=2;" vertex="1" parent="1">
          <mxGeometry x="340" y="1420" width="100" height="40" as="geometry" />
        </mxCell>
        <mxCell id="bgBlzV7WbkrTSwDAs2LR-65" style="edgeStyle=orthogonalEdgeStyle;rounded=0;orthogonalLoop=1;jettySize=auto;html=1;exitX=0.5;exitY=1;exitDx=0;exitDy=0;" edge="1" parent="1" source="bgBlzV7WbkrTSwDAs2LR-66" target="bgBlzV7WbkrTSwDAs2LR-69">
          <mxGeometry relative="1" as="geometry" />
        </mxCell>
        <mxCell id="bgBlzV7WbkrTSwDAs2LR-66" value="pickbeeper();" style="rounded=1;whiteSpace=wrap;html=1;absoluteArcSize=1;arcSize=14;strokeWidth=2;" vertex="1" parent="1">
          <mxGeometry x="340" y="1500" width="100" height="40" as="geometry" />
        </mxCell>
        <mxCell id="bgBlzV7WbkrTSwDAs2LR-67" style="edgeStyle=orthogonalEdgeStyle;rounded=0;orthogonalLoop=1;jettySize=auto;html=1;exitX=0.5;exitY=1;exitDx=0;exitDy=0;" edge="1" parent="1" source="bgBlzV7WbkrTSwDAs2LR-69" target="bgBlzV7WbkrTSwDAs2LR-71">
          <mxGeometry relative="1" as="geometry" />
        </mxCell>
        <mxCell id="bgBlzV7WbkrTSwDAs2LR-68" style="edgeStyle=orthogonalEdgeStyle;rounded=0;orthogonalLoop=1;jettySize=auto;html=1;exitX=0;exitY=0.5;exitDx=0;exitDy=0;" edge="1" parent="1" source="bgBlzV7WbkrTSwDAs2LR-69">
          <mxGeometry relative="1" as="geometry">
            <Array as="points">
              <mxPoint x="320" y="1590" />
              <mxPoint x="320" y="1710" />
              <mxPoint x="390" y="1710" />
            </Array>
            <mxPoint x="390" y="1720" as="targetPoint" />
          </mxGeometry>
        </mxCell>
        <mxCell id="bgBlzV7WbkrTSwDAs2LR-69" value="3" style="verticalLabelPosition=middle;verticalAlign=middle;html=1;shape=hexagon;perimeter=hexagonPerimeter2;arcSize=6;size=0.27;labelPosition=center;align=center;fontSize=16;" vertex="1" parent="1">
          <mxGeometry x="340" y="1560" width="100" height="60" as="geometry" />
        </mxCell>
        <mxCell id="bgBlzV7WbkrTSwDAs2LR-70" style="edgeStyle=orthogonalEdgeStyle;rounded=0;orthogonalLoop=1;jettySize=auto;html=1;exitX=0.5;exitY=1;exitDx=0;exitDy=0;entryX=1;entryY=0.5;entryDx=0;entryDy=0;" edge="1" parent="1" source="bgBlzV7WbkrTSwDAs2LR-71" target="bgBlzV7WbkrTSwDAs2LR-69">
          <mxGeometry relative="1" as="geometry">
            <Array as="points">
              <mxPoint x="390" y="1700" />
              <mxPoint x="460" y="1700" />
              <mxPoint x="460" y="1590" />
            </Array>
          </mxGeometry>
        </mxCell>
        <mxCell id="bgBlzV7WbkrTSwDAs2LR-71" value="turnleft();" style="rounded=1;whiteSpace=wrap;html=1;absoluteArcSize=1;arcSize=14;strokeWidth=2;" vertex="1" parent="1">
          <mxGeometry x="340" y="1640" width="100" height="40" as="geometry" />
        </mxCell>
        <mxCell id="bgBlzV7WbkrTSwDAs2LR-72" value="move();" style="rounded=1;whiteSpace=wrap;html=1;absoluteArcSize=1;arcSize=14;strokeWidth=2;" vertex="1" parent="1">
          <mxGeometry x="340" y="1720" width="100" height="40" as="geometry" />
        </mxCell>
        <mxCell id="bgBlzV7WbkrTSwDAs2LR-73" style="edgeStyle=orthogonalEdgeStyle;rounded=0;orthogonalLoop=1;jettySize=auto;html=1;exitX=0.5;exitY=1;exitDx=0;exitDy=0;" edge="1" parent="1" target="bgBlzV7WbkrTSwDAs2LR-76">
          <mxGeometry relative="1" as="geometry">
            <mxPoint x="390" y="1760" as="sourcePoint" />
          </mxGeometry>
        </mxCell>
        <mxCell id="bgBlzV7WbkrTSwDAs2LR-74" style="edgeStyle=orthogonalEdgeStyle;rounded=0;orthogonalLoop=1;jettySize=auto;html=1;exitX=0.5;exitY=1;exitDx=0;exitDy=0;" edge="1" parent="1" source="bgBlzV7WbkrTSwDAs2LR-76" target="bgBlzV7WbkrTSwDAs2LR-78">
          <mxGeometry relative="1" as="geometry" />
        </mxCell>
        <mxCell id="bgBlzV7WbkrTSwDAs2LR-75" style="edgeStyle=orthogonalEdgeStyle;rounded=0;orthogonalLoop=1;jettySize=auto;html=1;exitX=0;exitY=0.5;exitDx=0;exitDy=0;" edge="1" parent="1" source="bgBlzV7WbkrTSwDAs2LR-76">
          <mxGeometry relative="1" as="geometry">
            <Array as="points">
              <mxPoint x="320" y="1810" />
              <mxPoint x="320" y="1930" />
              <mxPoint x="390" y="1930" />
            </Array>
            <mxPoint x="390" y="1940" as="targetPoint" />
          </mxGeometry>
        </mxCell>
        <mxCell id="bgBlzV7WbkrTSwDAs2LR-76" value="3" style="verticalLabelPosition=middle;verticalAlign=middle;html=1;shape=hexagon;perimeter=hexagonPerimeter2;arcSize=6;size=0.27;labelPosition=center;align=center;fontSize=16;" vertex="1" parent="1">
          <mxGeometry x="340" y="1780" width="100" height="60" as="geometry" />
        </mxCell>
        <mxCell id="bgBlzV7WbkrTSwDAs2LR-77" style="edgeStyle=orthogonalEdgeStyle;rounded=0;orthogonalLoop=1;jettySize=auto;html=1;exitX=0.5;exitY=1;exitDx=0;exitDy=0;entryX=1;entryY=0.5;entryDx=0;entryDy=0;" edge="1" parent="1" source="bgBlzV7WbkrTSwDAs2LR-78" target="bgBlzV7WbkrTSwDAs2LR-76">
          <mxGeometry relative="1" as="geometry">
            <Array as="points">
              <mxPoint x="390" y="1920" />
              <mxPoint x="460" y="1920" />
              <mxPoint x="460" y="1810" />
            </Array>
          </mxGeometry>
        </mxCell>
        <mxCell id="bgBlzV7WbkrTSwDAs2LR-78" value="turnleft();" style="rounded=1;whiteSpace=wrap;html=1;absoluteArcSize=1;arcSize=14;strokeWidth=2;" vertex="1" parent="1">
          <mxGeometry x="340" y="1860" width="100" height="40" as="geometry" />
        </mxCell>
        <mxCell id="bgBlzV7WbkrTSwDAs2LR-83" style="edgeStyle=orthogonalEdgeStyle;rounded=0;orthogonalLoop=1;jettySize=auto;html=1;exitX=0.5;exitY=1;exitDx=0;exitDy=0;" edge="1" parent="1" target="bgBlzV7WbkrTSwDAs2LR-86">
          <mxGeometry relative="1" as="geometry">
            <mxPoint x="390" y="1920" as="sourcePoint" />
          </mxGeometry>
        </mxCell>
        <mxCell id="bgBlzV7WbkrTSwDAs2LR-84" style="edgeStyle=orthogonalEdgeStyle;rounded=0;orthogonalLoop=1;jettySize=auto;html=1;exitX=0.5;exitY=1;exitDx=0;exitDy=0;entryX=0.5;entryY=0;entryDx=0;entryDy=0;" edge="1" parent="1" source="bgBlzV7WbkrTSwDAs2LR-86" target="bgBlzV7WbkrTSwDAs2LR-87">
          <mxGeometry relative="1" as="geometry" />
        </mxCell>
        <mxCell id="bgBlzV7WbkrTSwDAs2LR-85" style="edgeStyle=orthogonalEdgeStyle;rounded=0;orthogonalLoop=1;jettySize=auto;html=1;exitX=0;exitY=0.5;exitDx=0;exitDy=0;" edge="1" parent="1" source="bgBlzV7WbkrTSwDAs2LR-86" target="bgBlzV7WbkrTSwDAs2LR-92">
          <mxGeometry relative="1" as="geometry">
            <Array as="points">
              <mxPoint x="320" y="1970" />
              <mxPoint x="320" y="2150" />
              <mxPoint x="390" y="2150" />
            </Array>
          </mxGeometry>
        </mxCell>
        <mxCell id="bgBlzV7WbkrTSwDAs2LR-86" value="3" style="verticalLabelPosition=middle;verticalAlign=middle;html=1;shape=hexagon;perimeter=hexagonPerimeter2;arcSize=6;size=0.27;labelPosition=center;align=center;fontSize=16;" vertex="1" parent="1">
          <mxGeometry x="340" y="1940" width="100" height="60" as="geometry" />
        </mxCell>
        <mxCell id="bgBlzV7WbkrTSwDAs2LR-87" value="pickbeeper();" style="rounded=1;whiteSpace=wrap;html=1;absoluteArcSize=1;arcSize=14;strokeWidth=2;" vertex="1" parent="1">
          <mxGeometry x="340" y="2020" width="100" height="40" as="geometry" />
        </mxCell>
        <mxCell id="bgBlzV7WbkrTSwDAs2LR-88" style="edgeStyle=orthogonalEdgeStyle;rounded=0;orthogonalLoop=1;jettySize=auto;html=1;exitX=0.5;exitY=1;exitDx=0;exitDy=0;entryX=0.5;entryY=0;entryDx=0;entryDy=0;" edge="1" parent="1" target="bgBlzV7WbkrTSwDAs2LR-90">
          <mxGeometry relative="1" as="geometry">
            <mxPoint x="390" y="2060" as="sourcePoint" />
          </mxGeometry>
        </mxCell>
        <mxCell id="bgBlzV7WbkrTSwDAs2LR-89" style="edgeStyle=orthogonalEdgeStyle;rounded=0;orthogonalLoop=1;jettySize=auto;html=1;exitX=0.5;exitY=1;exitDx=0;exitDy=0;entryX=1;entryY=0.5;entryDx=0;entryDy=0;" edge="1" parent="1" source="bgBlzV7WbkrTSwDAs2LR-90" target="bgBlzV7WbkrTSwDAs2LR-86">
          <mxGeometry relative="1" as="geometry">
            <Array as="points">
              <mxPoint x="390" y="2140" />
              <mxPoint x="460" y="2140" />
              <mxPoint x="460" y="1970" />
            </Array>
          </mxGeometry>
        </mxCell>
        <mxCell id="bgBlzV7WbkrTSwDAs2LR-90" value="move();" style="rounded=1;whiteSpace=wrap;html=1;absoluteArcSize=1;arcSize=14;strokeWidth=2;" vertex="1" parent="1">
          <mxGeometry x="340" y="2080" width="100" height="40" as="geometry" />
        </mxCell>
        <mxCell id="bgBlzV7WbkrTSwDAs2LR-91" style="edgeStyle=orthogonalEdgeStyle;rounded=0;orthogonalLoop=1;jettySize=auto;html=1;exitX=0.5;exitY=1;exitDx=0;exitDy=0;" edge="1" parent="1" source="bgBlzV7WbkrTSwDAs2LR-92">
          <mxGeometry relative="1" as="geometry">
            <mxPoint x="390" y="2220" as="targetPoint" />
          </mxGeometry>
        </mxCell>
        <mxCell id="bgBlzV7WbkrTSwDAs2LR-92" value="pickbeeper();" style="rounded=1;whiteSpace=wrap;html=1;absoluteArcSize=1;arcSize=14;strokeWidth=2;" vertex="1" parent="1">
          <mxGeometry x="340" y="2160" width="100" height="40" as="geometry" />
        </mxCell>
        <mxCell id="bgBlzV7WbkrTSwDAs2LR-93" value="Fin" style="strokeWidth=2;html=1;shape=mxgraph.flowchart.terminator;whiteSpace=wrap;fontSize=16;" vertex="1" parent="1">
          <mxGeometry x="340" y="2220" width="100" height="60" as="geometry" />
        </mxCell>
      </root>
    </mxGraphModel>
  </diagram>
</mxfile>
